<svg xmlns="http://www.w3.org/2000/svg">
    <symbol id="users" viewBox="0 0 20 20">
            <g>
                <path d="M18.9061 16.0937H17.0311V14.2187C17.0311 14.1156 16.9467 14.0312 16.8436 14.0312H15.7186C15.6155 14.0312 15.5311 14.1156 15.5311 14.2187V16.0937H13.6561C13.553 16.0937 13.4686 16.1781 13.4686 16.2812V17.4062C13.4686 17.5093 13.553 17.5937 13.6561 17.5937H15.5311V19.4687C15.5311 19.5718 15.6155 19.6562 15.7186 19.6562H16.8436C16.9467 19.6562 17.0311 19.5718 17.0311 19.4687V17.5937H18.9061C19.0092 17.5937 19.0936 17.5093 19.0936 17.4062V16.2812C19.0936 16.1781 19.0092 16.0937 18.9061 16.0937ZM6.75376 9.68122C6.73266 9.47731 6.72094 9.27106 6.72094 9.06247C6.72094 8.68981 6.7561 8.32653 6.82173 7.97263C6.83813 7.88825 6.7936 7.80153 6.71626 7.76638C6.39751 7.62341 6.10454 7.42653 5.85141 7.1781C5.55315 6.88889 5.31844 6.54069 5.16227 6.15571C5.0061 5.77073 4.93189 5.35742 4.94438 4.94216C4.96548 4.18981 5.26782 3.47497 5.79516 2.93591C6.37407 2.34294 7.15219 2.0195 7.97954 2.02888C8.72719 2.03591 9.44907 2.32419 9.99516 2.83513C10.1803 3.00856 10.3397 3.20075 10.4733 3.407C10.5202 3.47966 10.6116 3.51013 10.6913 3.482C11.1038 3.33903 11.5397 3.23825 11.9874 3.19138C12.1186 3.17731 12.1936 3.03669 12.135 2.9195C11.3733 1.41247 9.81704 0.371845 8.01704 0.34372C5.42016 0.303876 3.25454 2.43435 3.25454 5.03122C3.25454 6.5031 3.93188 7.8156 4.9936 8.67575C4.24829 9.02028 3.56157 9.49606 2.96626 10.0914C1.68188 11.3734 0.95532 13.0656 0.908445 14.8726C0.907819 14.8976 0.912207 14.9225 0.921349 14.9458C0.930492 14.9691 0.944204 14.9903 0.961677 15.0082C0.979151 15.0262 1.00003 15.0404 1.02309 15.0501C1.04615 15.0598 1.07092 15.0648 1.09595 15.0648H2.41079C2.51157 15.0648 2.59594 14.9851 2.59829 14.8843C2.64282 13.525 3.1936 12.2523 4.16157 11.2867C4.85063 10.5976 5.69438 10.1195 6.61548 9.88747C6.70454 9.86169 6.76548 9.77497 6.75376 9.68122ZM17.3124 9.06247C17.3124 6.49841 15.2522 4.41481 12.6975 4.37497C10.1006 4.33513 7.93735 6.4656 7.93735 9.06247C7.93735 10.5343 8.61704 11.8468 9.67641 12.707C8.92338 13.0561 8.23787 13.5353 7.65141 14.1226C6.36704 15.4047 5.64048 17.0968 5.5936 18.9015C5.59298 18.9265 5.59736 18.9514 5.60651 18.9747C5.61565 18.998 5.62936 19.0192 5.64683 19.0372C5.66431 19.0551 5.68519 19.0693 5.70825 19.079C5.73131 19.0887 5.75608 19.0937 5.7811 19.0937H7.0936C7.19438 19.0937 7.27876 19.014 7.2811 18.9132C7.32563 17.5539 7.87641 16.2812 8.84438 15.3156C9.85454 14.3054 11.1952 13.75 12.6249 13.75C15.2124 13.75 17.3124 11.6523 17.3124 9.06247ZM14.7459 11.1836C14.1788 11.7508 13.4264 12.0625 12.6249 12.0625C11.8233 12.0625 11.0709 11.7508 10.5038 11.1836C10.2207 10.902 9.99709 10.5665 9.84612 10.1969C9.69514 9.82733 9.6199 9.4312 9.62485 9.032C9.63188 8.26325 9.93891 7.52028 10.4756 6.9695C11.0381 6.39294 11.7905 6.07185 12.5944 6.06247C13.3889 6.05544 14.16 6.36481 14.7272 6.92028C15.3084 7.48981 15.6272 8.25153 15.6272 9.06247C15.6249 9.86403 15.3131 10.6164 14.7459 11.1836Z"/>
            </g>
    </symbol>
    <symbol id="chat" viewBox="0 0 22 22">
            <g>
                <path d="M9.87519 11C9.87519 11.2984 9.99372 11.5845 10.2047 11.7955C10.4157 12.0065 10.7018 12.125 11.0002 12.125C11.2986 12.125 11.5847 12.0065 11.7957 11.7955C12.0067 11.5845 12.1252 11.2984 12.1252 11C12.1252 10.7016 12.0067 10.4155 11.7957 10.2045C11.5847 9.99353 11.2986 9.875 11.0002 9.875C10.7018 9.875 10.4157 9.99353 10.2047 10.2045C9.99372 10.4155 9.87519 10.7016 9.87519 11ZM14.5627 11C14.5627 11.2984 14.6812 11.5845 14.8922 11.7955C15.1032 12.0065 15.3893 12.125 15.6877 12.125C15.9861 12.125 16.2722 12.0065 16.4832 11.7955C16.6942 11.5845 16.8127 11.2984 16.8127 11C16.8127 10.7016 16.6942 10.4155 16.4832 10.2045C16.2722 9.99353 15.9861 9.875 15.6877 9.875C15.3893 9.875 15.1032 9.99353 14.8922 10.2045C14.6812 10.4155 14.5627 10.7016 14.5627 11ZM5.18769 11C5.18769 11.2984 5.30622 11.5845 5.5172 11.7955C5.72818 12.0065 6.01433 12.125 6.31269 12.125C6.61106 12.125 6.89721 12.0065 7.10819 11.7955C7.31917 11.5845 7.43769 11.2984 7.43769 11C7.43769 10.7016 7.31917 10.4155 7.10819 10.2045C6.89721 9.99353 6.61106 9.875 6.31269 9.875C6.01433 9.875 5.72818 9.99353 5.5172 10.2045C5.30622 10.4155 5.18769 10.7016 5.18769 11ZM20.6846 6.93125C20.1549 5.67266 19.3955 4.54297 18.4275 3.57266C17.4663 2.60796 16.3253 1.84114 15.0689 1.31563C13.7799 0.774219 12.4111 0.5 11.0002 0.5H10.9533C9.53301 0.507031 8.15723 0.788281 6.86348 1.34141C5.61791 1.87232 4.48753 2.64049 3.53535 3.60312C2.57676 4.57109 1.82441 5.69609 1.3041 6.95C0.765038 8.24844 0.493163 9.62891 0.500194 11.0492C0.508147 12.6769 0.893222 14.2806 1.62519 15.7344V19.2969C1.62519 19.5828 1.73878 19.857 1.94097 20.0592C2.14316 20.2614 2.41738 20.375 2.70332 20.375H6.26816C7.72198 21.107 9.32565 21.492 10.9533 21.5H11.0025C12.4064 21.5 13.7682 21.2281 15.0502 20.6961C16.3002 20.1768 17.437 19.419 18.3971 18.4648C19.365 17.5063 20.1268 16.3859 20.6588 15.1367C21.2119 13.843 21.4932 12.4672 21.5002 11.0469C21.5072 9.61953 21.2307 8.23438 20.6846 6.93125ZM17.1432 17.1969C15.5002 18.8234 13.3205 19.7188 11.0002 19.7188H10.9604C9.54707 19.7117 8.14316 19.3602 6.90332 18.6992L6.70644 18.5938H3.40644V15.2938L3.30098 15.0969C2.64004 13.857 2.28848 12.4531 2.28144 11.0398C2.27207 8.70312 3.16504 6.50937 4.80332 4.85703C6.43926 3.20469 8.62598 2.29062 10.9627 2.28125H11.0025C12.1744 2.28125 13.3111 2.50859 14.3822 2.95859C15.4275 3.39687 16.365 4.02734 17.1713 4.83359C17.9752 5.6375 18.608 6.57734 19.0463 7.62266C19.501 8.70547 19.7283 9.85391 19.7236 11.0398C19.7096 13.3742 18.7932 15.5609 17.1432 17.1969Z"/>
            </g>
    </symbol>
    <symbol id="bell" viewBox="0 0 16 22">
            <g>
                <path d="M15.125 17H14.5625V9.03125C14.5625 5.72422 12.118 2.99141 8.9375 2.53672V1.625C8.9375 1.10703 8.51797 0.6875 8 0.6875C7.48203 0.6875 7.0625 1.10703 7.0625 1.625V2.53672C3.88203 2.99141 1.4375 5.72422 1.4375 9.03125V17H0.875C0.460156 17 0.125 17.3352 0.125 17.75V18.5C0.125 18.6031 0.209375 18.6875 0.3125 18.6875H5.375C5.375 20.1359 6.55156 21.3125 8 21.3125C9.44844 21.3125 10.625 20.1359 10.625 18.6875H15.6875C15.7906 18.6875 15.875 18.6031 15.875 18.5V17.75C15.875 17.3352 15.5398 17 15.125 17ZM8 19.8125C7.37891 19.8125 6.875 19.3086 6.875 18.6875H9.125C9.125 19.3086 8.62109 19.8125 8 19.8125ZM3.125 17V9.03125C3.125 7.72813 3.63125 6.50469 4.55234 5.58359C5.47344 4.6625 6.69688 4.15625 8 4.15625C9.30313 4.15625 10.5266 4.6625 11.4477 5.58359C12.3687 6.50469 12.875 7.72813 12.875 9.03125V17H3.125Z"/>
            </g>        
    </symbol>
    <symbol id="info" viewBox="0 0 22 22">
            <g>
                <path d="M11 0.5C5.20156 0.5 0.5 5.20156 0.5 11C0.5 16.7984 5.20156 21.5 11 21.5C16.7984 21.5 21.5 16.7984 21.5 11C21.5 5.20156 16.7984 0.5 11 0.5ZM11 19.7188C6.18594 19.7188 2.28125 15.8141 2.28125 11C2.28125 6.18594 6.18594 2.28125 11 2.28125C15.8141 2.28125 19.7188 6.18594 19.7188 11C19.7188 15.8141 15.8141 19.7188 11 19.7188Z"/>
                
                <path d="M9.875 6.875C9.875 7.17337 9.99353 7.45952 10.2045 7.6705C10.4155 7.88147 10.7016 8 11 8C11.2984 8 11.5845 7.88147 11.7955 7.6705C12.0065 7.45952 12.125 7.17337 12.125 6.875C12.125 6.57663 12.0065 6.29048 11.7955 6.0795C11.5845 5.86853 11.2984 5.75 11 5.75C10.7016 5.75 10.4155 5.86853 10.2045 6.0795C9.99353 6.29048 9.875 6.57663 9.875 6.875ZM11.5625 9.5H10.4375C10.3344 9.5 10.25 9.58437 10.25 9.6875V16.0625C10.25 16.1656 10.3344 16.25 10.4375 16.25H11.5625C11.6656 16.25 11.75 16.1656 11.75 16.0625V9.6875C11.75 9.58437 11.6656 9.5 11.5625 9.5Z"/>                
            </g>        
    </symbol>
    <symbol id="setting" viewBox="0 0 14 14">
        <g>
           <path d="M12.6438 8.55473L11.7483 7.7891C11.7907 7.52934 11.8126 7.2641 11.8126 6.99887C11.8126 6.73363 11.7907 6.4684 11.7483 6.20863L12.6438 5.44301C12.7114 5.38519 12.7597 5.30817 12.7824 5.22221C12.8051 5.13624 12.8011 5.0454 12.771 4.96176L12.7587 4.92621C12.5121 4.23719 12.143 3.59845 11.669 3.04086L11.6444 3.01215C11.5869 2.94454 11.5103 2.89595 11.4246 2.87276C11.339 2.84958 11.2483 2.85289 11.1645 2.88227L10.053 3.27738C9.64285 2.94106 9.18485 2.67582 8.68992 2.48988L8.47528 1.32777C8.45908 1.24033 8.41667 1.15989 8.35366 1.09713C8.29066 1.03437 8.21005 0.992262 8.12254 0.976407L8.08563 0.969571C7.37332 0.841055 6.6241 0.841055 5.9118 0.969571L5.87489 0.976407C5.78738 0.992262 5.70677 1.03437 5.64377 1.09713C5.58076 1.15989 5.53835 1.24033 5.52215 1.32777L5.30614 2.49535C4.81516 2.68133 4.35795 2.94642 3.95262 3.28012L2.83289 2.88227C2.74918 2.85266 2.65843 2.84922 2.57271 2.87242C2.487 2.89562 2.41037 2.94436 2.35301 3.01215L2.3284 3.04086C1.85501 3.59884 1.48591 4.23747 1.23875 4.92621L1.22645 4.96176C1.16493 5.13266 1.21551 5.32406 1.3536 5.44301L2.26004 6.21684C2.21766 6.47387 2.19715 6.73637 2.19715 6.9975C2.19715 7.26 2.21766 7.5225 2.26004 7.77817L1.3536 8.55199C1.28605 8.60982 1.23771 8.68683 1.215 8.7728C1.19229 8.85876 1.19628 8.9496 1.22645 9.03324L1.23875 9.06879C1.48621 9.75785 1.85262 10.3936 2.3284 10.9541L2.35301 10.9829C2.41051 11.0505 2.48714 11.0991 2.5728 11.1222C2.65847 11.1454 2.74915 11.1421 2.83289 11.1127L3.95262 10.7149C4.36004 11.0498 4.81532 11.3151 5.30614 11.4997L5.52215 12.6672C5.53835 12.7547 5.58076 12.8351 5.64377 12.8979C5.70677 12.9606 5.78738 13.0027 5.87489 13.0186L5.9118 13.0254C6.63065 13.1546 7.36678 13.1546 8.08563 13.0254L8.12254 13.0186C8.21005 13.0027 8.29066 12.9606 8.35366 12.8979C8.41667 12.8351 8.45908 12.7547 8.47528 12.6672L8.68992 11.5051C9.18465 11.3197 9.64524 11.0536 10.053 10.7176L11.1645 11.1127C11.2483 11.1423 11.339 11.1458 11.4247 11.1226C11.5104 11.0994 11.5871 11.0506 11.6444 10.9829L11.669 10.9541C12.1448 10.3922 12.5112 9.75785 12.7587 9.06879L12.771 9.03324C12.8325 8.86508 12.7819 8.67367 12.6438 8.55473ZM10.7776 6.36996C10.8118 6.57641 10.8296 6.78832 10.8296 7.00024C10.8296 7.21215 10.8118 7.42406 10.7776 7.63051L10.6874 8.17875L11.7087 9.05238C11.5539 9.40907 11.3584 9.74672 11.1263 10.0586L9.8575 9.60883L9.42821 9.96156C9.10145 10.2295 8.73778 10.4401 8.34403 10.5877L7.82313 10.7832L7.5784 12.1094C7.19227 12.1532 6.80243 12.1532 6.41629 12.1094L6.17157 10.7805L5.65477 10.5823C5.26512 10.4346 4.90282 10.2241 4.57879 9.95746L4.1495 9.60336L2.87254 10.0573C2.64012 9.74418 2.44598 9.40649 2.29012 9.05102L3.32235 8.16918L3.23348 7.62231C3.20067 7.41859 3.18289 7.20805 3.18289 7.00024C3.18289 6.79106 3.1993 6.58188 3.23348 6.37816L3.32235 5.83129L2.29012 4.94945C2.44461 4.59262 2.64012 4.25629 2.87254 3.9432L4.1495 4.39711L4.57879 4.04301C4.90282 3.77641 5.26512 3.56586 5.65477 3.4182L6.17293 3.2227L6.41766 1.89379C6.80184 1.85004 7.19422 1.85004 7.57977 1.89379L7.8245 3.21996L8.34539 3.41547C8.73778 3.56313 9.10282 3.77367 9.42957 4.04164L9.85887 4.39438L11.1276 3.94457C11.36 4.25766 11.5542 4.59535 11.71 4.95082L10.6888 5.82445L10.7776 6.36996ZM7.00008 4.45727C5.67118 4.45727 4.59383 5.53461 4.59383 6.86352C4.59383 8.19242 5.67118 9.26977 7.00008 9.26977C8.32899 9.26977 9.40633 8.19242 9.40633 6.86352C9.40633 5.53461 8.32899 4.45727 7.00008 4.45727ZM8.08289 7.94633C7.94087 8.08876 7.77209 8.2017 7.58626 8.27866C7.40043 8.35562 7.20122 8.39508 7.00008 8.39477C6.59129 8.39477 6.20711 8.23481 5.91727 7.94633C5.77484 7.80431 5.6619 7.63553 5.58494 7.4497C5.50798 7.26387 5.46852 7.06465 5.46883 6.86352C5.46883 6.45473 5.62879 6.07055 5.91727 5.7807C6.20711 5.49086 6.59129 5.33227 7.00008 5.33227C7.40887 5.33227 7.79305 5.49086 8.08289 5.7807C8.22532 5.92272 8.33827 6.09151 8.41523 6.27734C8.49219 6.46317 8.53164 6.66238 8.53133 6.86352C8.53133 7.27231 8.37137 7.65649 8.08289 7.94633Z" fill="#8C8C8C"/>
       </g>
    </symbol>
    <symbol id="like-active" viewBox="0 0 16 16">
        <g>
        <path d="M4.26562 7.74846V14.436L4.27031 7.74846H4.26562ZM12.675 6.36877H7.7625L7.9125 3.26877C7.92188 3.08283 7.83906 2.90783 7.68437 2.79221C7.58906 2.72189 7.47188 2.68596 7.35469 2.68752C7.04844 2.68908 6.77813 2.89689 6.69531 3.19221C6.11563 5.29221 5.68125 6.86721 5.39062 7.91877V13.3125H11.6313C11.7874 13.2425 11.9201 13.1289 12.0132 12.9853C12.1063 12.8417 12.156 12.6743 12.1562 12.5031C12.1562 12.3516 12.1203 12.2078 12.0484 12.0766L11.8313 11.6797L12.1734 11.3828C12.2698 11.2994 12.347 11.1962 12.3998 11.0803C12.4527 10.9643 12.4799 10.8384 12.4797 10.711C12.4797 10.5594 12.4437 10.4156 12.3719 10.2844L12.1547 9.88752L12.4969 9.59064C12.5932 9.50723 12.6704 9.40403 12.7232 9.28809C12.7761 9.17215 12.8033 9.04618 12.8031 8.91877C12.8031 8.76721 12.7672 8.62346 12.6953 8.49221L12.4766 8.09377L12.8188 7.79689C12.9151 7.71348 12.9923 7.61028 13.0451 7.49434C13.098 7.3784 13.1252 7.25243 13.125 7.12502C13.125 6.82658 12.9531 6.53908 12.675 6.36877Z" fill="#E6F7FF"/>
        <path d="M1.75 8.25005V13.9375C1.75 14.2141 1.97344 14.4375 2.25 14.4375H3.26562V7.75005H2.25C1.97344 7.75005 1.75 7.97349 1.75 8.25005ZM13.8422 8.33911C14.1047 7.99224 14.25 7.56724 14.25 7.12505C14.25 6.42349 13.8578 5.75786 13.2266 5.39067C13.0641 5.29535 12.879 5.24519 12.6906 5.24536H8.94219L9.03594 3.32505C9.05937 2.86099 8.89531 2.42036 8.575 2.08442C8.4187 1.91868 8.23 1.78683 8.02061 1.69705C7.81123 1.60728 7.58563 1.5615 7.35781 1.56255C6.54531 1.56255 5.82656 2.10942 5.61094 2.89224L4.27031 7.74849L4.26562 14.436H11.6422C11.7875 14.436 11.9266 14.4079 12.0562 14.3516C12.8 14.0344 13.2797 13.3079 13.2797 12.5016C13.2797 12.3047 13.2516 12.111 13.1953 11.9235C13.4578 11.5766 13.6031 11.1516 13.6031 10.7094C13.6031 10.5125 13.575 10.3188 13.5188 10.1313C13.7812 9.78442 13.9266 9.35942 13.9266 8.91724C13.9266 8.72036 13.8984 8.52661 13.8422 8.33911ZM12.8188 7.79692L12.4766 8.0938L12.6953 8.49224C12.7669 8.62297 12.804 8.76976 12.8031 8.9188C12.8031 9.17661 12.6922 9.42192 12.4969 9.59067L12.1547 9.88755L12.3719 10.2844C12.4434 10.4152 12.4805 10.562 12.4797 10.711C12.4797 10.9688 12.3687 11.2141 12.1734 11.3829L11.8313 11.6797L12.0484 12.0766C12.12 12.2073 12.1571 12.3541 12.1562 12.5032C12.1562 12.8532 11.95 13.1688 11.6313 13.3125H5.39062V7.9188C5.68125 6.8688 6.11562 5.2938 6.69531 3.19224C6.73581 3.04809 6.82198 2.92098 6.94087 2.82998C7.05977 2.73898 7.20497 2.689 7.35469 2.68755C7.47188 2.68599 7.58906 2.72192 7.68437 2.79224C7.83906 2.90786 7.92188 3.08286 7.9125 3.2688L7.7625 6.3688H12.675C12.9531 6.53911 13.125 6.82661 13.125 7.12505C13.125 7.38286 13.0141 7.62817 12.8188 7.79692Z" fill="#1890FF"/>
       </g>
    </symbol>
    <symbol id="like" viewBox="0 0 24 24">
        <g>        
            <path d="M20.7633 12.5094C21.157 11.9891 21.375 11.3516 21.375 10.6883C21.375 9.63596 20.7867 8.63987 19.8398 8.0844C19.5961 7.94142 19.3185 7.86617 19.0359 7.86643H13.4156L13.5563 4.98596C13.5891 4.28987 13.343 3.62893 12.8648 3.12502C12.6302 2.87665 12.3471 2.67904 12.0331 2.5444C11.7191 2.40975 11.3807 2.34094 11.0391 2.34221C9.82031 2.34221 8.74219 3.16252 8.41875 4.33674L6.40547 11.6258H3.375C2.96016 11.6258 2.625 11.961 2.625 12.3758V20.9071C2.625 21.3219 2.96016 21.6571 3.375 21.6571H17.468C17.6836 21.6571 17.8945 21.6149 18.0891 21.5305C19.2047 21.0547 19.9242 19.9649 19.9242 18.7555C19.9242 18.4602 19.882 18.1696 19.7977 17.8883C20.1914 17.368 20.4094 16.7305 20.4094 16.0672C20.4094 15.7719 20.3672 15.4813 20.2828 15.2C20.6766 14.6797 20.8945 14.0422 20.8945 13.3789C20.8898 13.0836 20.8477 12.7906 20.7633 12.5094ZM4.3125 19.9696V13.3133H6.21094V19.9696H4.3125ZM19.2281 11.6961L18.7148 12.1414L19.0406 12.7367C19.148 12.9328 19.2036 13.153 19.2023 13.3766C19.2023 13.7633 19.0336 14.1313 18.743 14.3844L18.2297 14.8297L18.5555 15.425C18.6628 15.6211 18.7185 15.8413 18.7172 16.0649C18.7172 16.4516 18.5484 16.8196 18.2578 17.0727L17.7445 17.518L18.0703 18.1133C18.1776 18.3094 18.2333 18.5296 18.232 18.7531C18.232 19.2781 17.9227 19.7516 17.4445 19.9672H7.71094V13.2383L10.043 4.78909C10.1031 4.57252 10.2322 4.38147 10.4107 4.24486C10.5891 4.10825 10.8073 4.03354 11.032 4.03205C11.2102 4.03205 11.3859 4.08362 11.5266 4.18909C11.7586 4.36252 11.8828 4.62502 11.8687 4.90393L11.6437 9.55393H19.0125C19.4297 9.8094 19.6875 10.2406 19.6875 10.6883C19.6875 11.075 19.5188 11.4406 19.2281 11.6961Z"/>
       </g>
    </symbol>
    <symbol id="share" viewBox="0 0 24 24">
    <g>
        <path d="M17.625 15.5625C16.957 15.5625 16.3406 15.7969 15.8578 16.1883L11.0016 12.675C11.0829 12.2287 11.0829 11.7713 11.0016 11.325L15.8578 7.81172C16.3406 8.20312 16.957 8.4375 17.625 8.4375C19.1766 8.4375 20.4375 7.17656 20.4375 5.625C20.4375 4.07344 19.1766 2.8125 17.625 2.8125C16.0734 2.8125 14.8125 4.07344 14.8125 5.625C14.8125 5.89687 14.85 6.15703 14.9227 6.40547L10.3102 9.74531C9.62578 8.83828 8.53828 8.25 7.3125 8.25C5.24062 8.25 3.5625 9.92812 3.5625 12C3.5625 14.0719 5.24062 15.75 7.3125 15.75C8.53828 15.75 9.62578 15.1617 10.3102 14.2547L14.9227 17.5945C14.85 17.843 14.8125 18.1055 14.8125 18.375C14.8125 19.9266 16.0734 21.1875 17.625 21.1875C19.1766 21.1875 20.4375 19.9266 20.4375 18.375C20.4375 16.8234 19.1766 15.5625 17.625 15.5625ZM17.625 4.40625C18.2977 4.40625 18.8438 4.95234 18.8438 5.625C18.8438 6.29766 18.2977 6.84375 17.625 6.84375C16.9523 6.84375 16.4062 6.29766 16.4062 5.625C16.4062 4.95234 16.9523 4.40625 17.625 4.40625ZM7.3125 14.0625C6.17578 14.0625 5.25 13.1367 5.25 12C5.25 10.8633 6.17578 9.9375 7.3125 9.9375C8.44922 9.9375 9.375 10.8633 9.375 12C9.375 13.1367 8.44922 14.0625 7.3125 14.0625ZM17.625 19.5938C16.9523 19.5938 16.4062 19.0477 16.4062 18.375C16.4062 17.7023 16.9523 17.1562 17.625 17.1562C18.2977 17.1562 18.8438 17.7023 18.8438 18.375C18.8438 19.0477 18.2977 19.5938 17.625 19.5938Z"/>
    </g>
    </symbol>
    <symbol id="dots" viewBox="0 0 24 24">
    <g>
        <path d="M4.125 11.9766C4.125 12.1489 4.15895 12.3196 4.22491 12.4788C4.29087 12.6381 4.38755 12.7828 4.50942 12.9046C4.6313 13.0265 4.77599 13.1232 4.93523 13.1892C5.09447 13.2551 5.26514 13.2891 5.4375 13.2891C5.60986 13.2891 5.78053 13.2551 5.93977 13.1892C6.09901 13.1232 6.2437 13.0265 6.36558 12.9046C6.48745 12.7828 6.58413 12.6381 6.65009 12.4788C6.71605 12.3196 6.75 12.1489 6.75 11.9766C6.75 11.8042 6.71605 11.6335 6.65009 11.4743C6.58413 11.3151 6.48745 11.1704 6.36558 11.0485C6.2437 10.9266 6.09901 10.8299 5.93977 10.764C5.78053 10.698 5.60986 10.6641 5.4375 10.6641C5.26514 10.6641 5.09447 10.698 4.93523 10.764C4.77599 10.8299 4.6313 10.9266 4.50942 11.0485C4.38755 11.1704 4.29087 11.3151 4.22491 11.4743C4.15895 11.6335 4.125 11.8042 4.125 11.9766ZM10.6875 11.9766C10.6875 12.3247 10.8258 12.6585 11.0719 12.9046C11.3181 13.1508 11.6519 13.2891 12 13.2891C12.3481 13.2891 12.6819 13.1508 12.9281 12.9046C13.1742 12.6585 13.3125 12.3247 13.3125 11.9766C13.3125 11.6285 13.1742 11.2946 12.9281 11.0485C12.6819 10.8023 12.3481 10.6641 12 10.6641C11.6519 10.6641 11.3181 10.8023 11.0719 11.0485C10.8258 11.2946 10.6875 11.6285 10.6875 11.9766ZM17.25 11.9766C17.25 12.3247 17.3883 12.6585 17.6344 12.9046C17.8806 13.1508 18.2144 13.2891 18.5625 13.2891C18.9106 13.2891 19.2444 13.1508 19.4906 12.9046C19.7367 12.6585 19.875 12.3247 19.875 11.9766C19.875 11.6285 19.7367 11.2946 19.4906 11.0485C19.2444 10.8023 18.9106 10.6641 18.5625 10.6641C18.2144 10.6641 17.8806 10.8023 17.6344 11.0485C17.3883 11.2946 17.25 11.6285 17.25 11.9766Z" fill="#595959"/>
    </g>
    </symbol>
</svg>
